# xmcd
#
# Track frame offsets:
#	150
#	32299
#	74579
#	94911
#	131718
#	156612
#	194663
#	238731
#	281862
#
# Disc length: 4471 seconds
#
# Revision: 2
# Processed by: cddbd v1.5.2PL0 Copyright (c) Steve Scherf et al.
# Submitted via: audiograbber 1.83.01
#
DISCID=8d117509
DTITLE=Kristjan Järvi, featuring Joe Zawinul - Absolute Ensemble
DYEAR=2009
DGENRE=Jazz
TTITLE0=Bimoya
TTITLE1=Sultan
TTITLE2=Great Empire
TTITLE3=Peace
TTITLE4=Good Day
TTITLE5=The Peasant
TTITLE6=Ballad For Two Musicians
TTITLE7=Ice Pick Willy
TTITLE8=Data - Notes, Photos, Credits
EXTD=
EXTT0=
EXTT1=
EXTT2=
EXTT3=
EXTT4=
EXTT5=
EXTT6=
EXTT7=
EXTT8=
PLAYORDER=
